<?xml version="1.0" encoding="utf-8"?>
<!-- Generator: Adobe Illustrator 24.0.0, SVG Export Plug-In . SVG Version: 6.00 Build 0)  -->
<svg version="1.1" id="Слой_1" xmlns="http://www.w3.org/2000/svg" xmlns:xlink="http://www.w3.org/1999/xlink" x="0px" y="0px"
	 viewBox="0 0 769.4 769.4" style="enable-background:new 0 0 769.4 769.4;" xml:space="preserve">
<style type="text/css">
	.st0{fill:#E8E8E8;}
</style>
<path class="st0" d="M732.4,108.8H37.1C16.3,108.8-0.5,87-0.5,60.1V48.8C-0.5,21.8,16.3,0,37.1,0h695.3C753.1,0,770,21.8,770,48.8
	v11.3C769.9,87,753.1,108.8,732.4,108.8z"/>
<path class="st0" d="M732.3,329H37.2c-20.8,0-37.7-21.9-37.7-48.9V269c0-27,16.9-48.9,37.7-48.9h695.1c20.8,0,37.7,21.9,37.7,48.9
	v11.1C769.9,307.1,753.1,329,732.3,329z"/>
<path class="st0" d="M732.6,549.2H36.8c-20.6,0-37.3-21.7-37.3-48.4v-12c0-26.8,16.7-48.4,37.3-48.4h695.8
	c20.6,0,37.3,21.7,37.3,48.4v12C769.9,527.5,753.2,549.2,732.6,549.2z"/>
<path class="st0" d="M732.1,769.4H37.3c-20.9,0-37.8-22-37.8-49.1v-10.6c0-27.1,16.9-49.1,37.8-49.1H732c20.9,0,37.8,22,37.8,49.1
	v10.6C769.9,747.4,753,769.4,732.1,769.4z"/>
</svg>
