<?xml version="1.0" encoding="utf-8"?>
<!-- Generator: Adobe Illustrator 24.0.0, SVG Export Plug-In . SVG Version: 6.00 Build 0)  -->
<svg version="1.1" id="Слой_1" xmlns="http://www.w3.org/2000/svg" xmlns:xlink="http://www.w3.org/1999/xlink" x="0px" y="0px"
	 viewBox="0 0 974.9 971.2" style="enable-background:new 0 0 974.9 971.2;" xml:space="preserve">
<style type="text/css">
	.st0{fill:#E8E8E8;stroke:#E8E8E8;stroke-linejoin:round;stroke-miterlimit:10;}
	.st1{fill:#E8E8E8;stroke:#E8E8E8;stroke-linecap:round;stroke-linejoin:round;stroke-miterlimit:10;}
	.st2{fill:#E8E8E8;stroke:#E8E8E8;stroke-miterlimit:10;}
</style>
<path class="st0" d="M377.8,428.7H51.4c-28.1,0-50.9-22.8-50.9-50.9V51.4c0-28.1,22.8-50.9,50.9-50.9h326.4
	c28.1,0,50.9,22.8,50.9,50.9v326.4C428.7,405.9,405.9,428.7,377.8,428.7z"/>
<path class="st1" d="M924.9,428.7H595.8c-27.4,0-49.5-22.2-49.5-49.5V50c0-27.4,22.2-49.5,49.5-49.5h329.1
	c27.4,0,49.5,22.2,49.5,49.5v329.1C974.4,406.5,952.3,428.7,924.9,428.7z"/>
<path class="st2" d="M924.7,970.7H595.9c-27.5,0-49.7-22.3-49.7-49.7V592.1c0-27.5,22.3-49.7,49.7-49.7h328.8
	c27.5,0,49.7,22.3,49.7,49.7v328.8C974.4,948.4,952.2,970.7,924.7,970.7z"/>
<path class="st2" d="M379.1,970.7h-329c-27.4,0-49.6-22.2-49.6-49.6V592c0-27.4,22.2-49.6,49.6-49.6h329c27.4,0,49.6,22.2,49.6,49.6
	v329C428.7,948.4,406.5,970.7,379.1,970.7z"/>
</svg>
