<?xml version="1.0" encoding="utf-8"?>
<!-- Generator: Adobe Illustrator 24.0.0, SVG Export Plug-In . SVG Version: 6.00 Build 0)  -->
<svg version="1.1" id="Слой_1" xmlns="http://www.w3.org/2000/svg" xmlns:xlink="http://www.w3.org/1999/xlink" x="0px" y="0px"
	 viewBox="0 0 988.5 991.3" style="enable-background:new 0 0 988.5 991.3;" xml:space="preserve">
<style type="text/css">
	.st0{fill:#E8E8E8;stroke:#E8E8E8;stroke-miterlimit:10;}
</style>
<path class="st0" d="M168.4,218H50.2c-27.4,0-49.7-22.2-49.7-49.7V50.2c0-27.4,22.2-49.7,49.7-49.7h118.2
	c27.4,0,49.7,22.2,49.7,49.7v118.2C218,195.8,195.8,218,168.4,218z"/>
<path class="st0" d="M168.4,606.8H50.1c-27.4,0-49.6-22.2-49.6-49.6V438.9c0-27.4,22.2-49.6,49.6-49.6h118.4
	c27.4,0,49.6,22.2,49.6,49.6v118.4C218,584.7,195.8,606.8,168.4,606.8z"/>
<path class="st0" d="M169,990.8H49.5c-27.1,0-49-22-49-49V822.4c0-27.1,22-49,49-49H169c27.1,0,49,22,49,49v119.4
	C218,968.9,196.1,990.8,169,990.8z"/>
<path class="st0" d="M938.4,218H380.2c-27.4,0-49.6-22.2-49.6-49.6V50.1c0-27.4,22.2-49.6,49.6-49.6h558.2
	c27.4,0,49.6,22.2,49.6,49.6v118.4C988,195.8,965.8,218,938.4,218z"/>
<path class="st0" d="M938.5,606.8H380.1c-27.3,0-49.5-22.2-49.5-49.5V438.8c0-27.3,22.1-49.5,49.5-49.5h558.4
	c27.3,0,49.5,22.1,49.5,49.5v118.6C988,584.7,965.8,606.8,938.5,606.8z"/>
<path class="st0" d="M938.4,990.8H380.1c-27.4,0-49.5-22.2-49.5-49.5V822.9c0-27.3,22.2-49.5,49.5-49.5h558.3
	c27.3,0,49.5,22.2,49.5,49.5v118.5C988,968.7,965.8,990.8,938.4,990.8z"/>
</svg>
